<svg xmlns="http://www.w3.org/2000/svg" viewBox="0 0 512 512"><title>Artboard 121</title><g id="Voice_Recognition" data-name="Voice Recognition"><path d="M152.45833,323.125A10.66552,10.66552,0,0,0,137.375,308.04167a32.02609,32.02609,0,0,0,0,45.25,10.66553,10.66553,0,0,0,15.08333-15.08334A10.68168,10.68168,0,0,1,152.45833,323.125Z" style="fill:#48e1f4"/><path d="M122.29167,277.875a10.66278,10.66278,0,0,0-15.08334,0,74.63944,74.63944,0,0,0,0,105.58333A10.66553,10.66553,0,0,0,122.29167,368.375a53.31389,53.31389,0,0,1,0-75.41667A10.66279,10.66279,0,0,0,122.29167,277.875Z" style="fill:#48e1f4"/><path d="M92.11458,262.78125a10.66552,10.66552,0,0,0-15.08333-15.08333,117.46683,117.46683,0,0,0,0,165.9375,10.66553,10.66553,0,0,0,15.08333-15.08334A96.12241,96.12241,0,0,1,92.11458,262.78125Z" style="fill:#48e1f4"/><path d="M426.66667,213.33333H256V448a21.33333,21.33333,0,0,0,21.33333,21.33333h128A21.33334,21.33334,0,0,0,426.66667,448Z" style="fill:#ffef7d"/><rect x="170.66667" y="42.66667" width="298.66667" height="298.66667" rx="149.33318" ry="149.33318" style="fill:#fcdf3f"/><rect x="362.66667" y="256" width="64" height="213.33333" rx="21.33333" ry="21.33333" style="fill:#fcdf3f"/><rect x="362.66667" y="277.33333" width="42.66667" height="106.66667" rx="21.33331" ry="21.33331" style="fill:#fbc700"/><rect x="170.66667" y="64" width="256" height="256" rx="127.99987" ry="127.99987" style="fill:#ffef7d"/><path d="M192,213.33333,170.66667,256l-21.33334,21.33333c0,21.33334,21.33334,21.33334,21.33334,21.33334S170.66667,320,192,320c0,0-21.33333,0-21.33333,21.33333,0,0,21.33333,0,21.33333,21.33334v0a42.66662,42.66662,0,0,0,42.66662,42.66662h42.66671A85.33333,85.33333,0,0,0,362.66667,320V213.33333Z" style="fill:#ffef7d"/><circle cx="202.66667" cy="224" r="10.66667" style="fill:#0ac"/><ellipse cx="234.66667" cy="320" rx="21.33333" ry="42.66667" style="fill:#fff6b5"/><path d="M341.33333,213.33333h21.33338A42.66662,42.66662,0,0,1,405.33333,256V256a42.66662,42.66662,0,0,1-42.66662,42.66662H341.33333a0,0,0,0,1,0,0V213.33333A0,0,0,0,1,341.33333,213.33333Z" style="fill:#ffef7d"/><path d="M362.66667,234.66667a21.33333,21.33333,0,1,1,0,42.66666Z" style="fill:#fbc700"/><rect x="256" y="405.33333" width="42.66667" height="64" rx="21.33331" ry="21.33331" style="fill:#fbc700"/><ellipse cx="341.33333" cy="128" rx="28.94153" ry="52.93304" transform="translate(9.46455 278.84945) rotate(-45)" style="fill:#fff6b5"/></g></svg>